<?xml version="1.0" standalone="no"?>
<!DOCTYPE svg PUBLIC "-//W3C//DTD SVG 20010904//EN"
 "http://www.w3.org/TR/2001/REC-SVG-20010904/DTD/svg10.dtd">
<svg version="1.0" xmlns="http://www.w3.org/2000/svg"
 width="1232.000000pt" height="1232.000000pt" viewBox="0 0 1232.000000 1232.000000"
 preserveAspectRatio="xMidYMid meet">
<metadata>
Created by potrace 1.11, written by Peter Selinger 2001-2013
</metadata>
<g transform="translate(0.000000,1232.000000) scale(0.100000,-0.100000)"
fill="#000000" stroke="none">
<path d="M1560 10240 c0 -3 -26 -5 -58 -6 -98 -2 -195 -16 -302 -46 -41 -11
-79 -21 -85 -22 -47 -12 -72 -20 -80 -26 -5 -4 -23 -10 -39 -14 -59 -14 -221
-100 -340 -178 -66 -44 -202 -169 -266 -244 -48 -56 -90 -114 -90 -124 0 -6
-3 -10 -7 -10 -19 0 -165 -287 -178 -348 -2 -10 -13 -43 -24 -74 -11 -32 -17
-58 -14 -58 3 0 0 -7 -7 -15 -7 -8 -10 -15 -7 -15 3 0 -1 -24 -8 -52 -18 -66
-29 -132 -41 -233 -9 -73 -10 -435 -1 -525 11 -119 18 -175 23 -189 2 -8 7
-30 10 -50 3 -20 7 -47 10 -61 17 -90 64 -359 69 -395 4 -32 24 -167 30 -205
2 -19 7 -55 10 -80 2 -25 7 -65 10 -90 11 -84 17 -143 21 -189 2 -25 6 -77 9
-116 37 -461 37 -963 0 -1435 -13 -164 -15 -187 -19 -220 -3 -19 -8 -66 -12
-105 -3 -38 -8 -79 -10 -90 -2 -11 -6 -40 -9 -65 -3 -25 -8 -58 -10 -75 -3
-16 -7 -48 -10 -70 -4 -22 -8 -51 -10 -65 -3 -14 -7 -43 -10 -65 -5 -38 -9
-58 -20 -115 -9 -44 -16 -84 -20 -110 -2 -14 -6 -36 -9 -50 -3 -13 -8 -42 -12
-64 -3 -22 -7 -43 -9 -46 -3 -5 -11 -60 -21 -145 -2 -16 -7 -61 -11 -100 -9
-83 -9 -425 1 -510 11 -94 21 -161 31 -202 6 -29 11 -50 20 -88 8 -34 34 -122
42 -145 4 -8 7 -18 7 -22 1 -3 4 -10 8 -14 5 -4 8 -13 8 -21 0 -33 138 -293
187 -353 7 -8 34 -42 59 -75 56 -71 145 -158 223 -217 31 -24 57 -46 59 -50 2
-5 8 -8 13 -8 11 0 72 -42 77 -53 2 -4 7 -5 12 -2 4 3 13 -2 20 -10 7 -8 19
-15 26 -15 8 0 14 -4 14 -10 0 -5 7 -10 15 -10 8 0 29 -8 47 -18 37 -21 151
-65 186 -73 4 -1 31 -10 61 -20 30 -11 56 -17 59 -14 3 2 14 -1 25 -7 12 -6
28 -12 37 -13 19 -2 107 -15 140 -21 123 -23 570 -24 570 -1 0 4 8 3 19 -2 10
-6 20 -9 22 -6 5 4 67 13 144 20 33 3 76 7 95 9 19 3 69 8 110 12 41 3 89 8
105 10 17 1 59 6 95 9 36 3 88 8 115 11 28 3 77 7 110 9 33 3 83 6 110 9 169
16 300 27 380 31 33 2 94 6 135 9 113 9 177 13 470 31 135 9 226 14 365 20 72
3 168 8 215 11 47 2 159 7 250 10 91 2 210 6 265 8 654 22 1689 22 2375 0 383
-12 515 -18 730 -29 63 -4 151 -9 195 -11 174 -9 253 -13 325 -19 41 -3 116
-8 165 -11 50 -3 113 -7 140 -10 28 -2 84 -6 125 -8 41 -3 104 -7 140 -11 36
-3 94 -8 130 -11 36 -3 88 -7 115 -10 28 -3 79 -7 115 -9 61 -4 85 -6 223 -20
28 -3 75 -8 102 -10 28 -3 66 -7 85 -9 19 -2 67 -7 105 -10 39 -4 90 -9 115
-12 182 -21 296 -27 450 -27 170 1 246 6 256 15 3 4 11 5 18 2 6 -2 45 2 86
11 41 8 91 17 110 20 19 3 87 23 150 45 63 22 120 42 125 43 14 4 142 69 186
94 131 76 304 225 390 338 13 17 26 32 29 35 30 26 170 271 170 298 0 6 5 12
10 12 6 0 10 6 10 14 0 7 7 31 16 52 9 22 16 40 15 42 -1 1 6 18 14 39 14 33
42 130 51 178 2 11 6 31 9 45 2 14 7 41 10 60 3 19 7 46 10 60 26 137 25 567
-1 693 -2 12 -7 40 -10 62 -6 49 -12 87 -23 140 -5 22 -9 47 -9 55 -1 8 -6 38
-12 65 -6 28 -13 61 -15 75 -3 14 -7 34 -9 45 -2 11 -8 45 -12 75 -8 57 -10
68 -13 73 -1 1 -4 23 -6 48 -2 26 -7 60 -10 75 -3 16 -8 49 -11 74 -3 25 -7
59 -9 75 -5 39 -13 108 -20 168 -3 26 -7 68 -10 95 -9 84 -20 235 -30 442 -14
271 -9 833 10 1030 3 25 7 87 10 137 2 51 7 105 9 120 2 16 7 57 11 93 10 96
15 141 20 180 3 19 7 55 10 80 6 49 22 152 29 186 2 12 7 45 11 74 4 29 9 62
11 74 3 12 7 32 10 46 2 14 7 41 11 60 3 19 7 44 9 55 1 11 5 32 8 48 6 28 9
45 20 107 16 91 15 89 32 235 8 68 9 402 1 485 -5 58 -14 120 -23 160 -3 14
-6 36 -8 50 -6 49 -39 175 -48 188 -6 6 -8 12 -5 12 7 0 -37 124 -53 152 -6
10 -10 25 -10 33 0 8 -4 15 -8 15 -5 0 -9 6 -9 13 -1 18 -89 173 -142 247 -94
133 -273 299 -416 387 -58 35 -175 99 -190 103 -5 2 -24 9 -42 17 -18 7 -39
13 -47 13 -8 0 -17 4 -20 9 -3 5 -16 11 -28 13 -13 3 -66 17 -118 31 -112 30
-155 37 -305 53 -124 14 -432 7 -565 -12 -19 -3 -62 -7 -95 -10 -33 -3 -76 -7
-95 -9 -19 -2 -66 -7 -105 -10 -38 -3 -86 -8 -105 -10 -80 -9 -167 -17 -205
-20 -64 -5 -176 -15 -235 -21 -30 -3 -84 -7 -120 -10 -36 -3 -85 -7 -110 -9
-25 -2 -85 -6 -135 -9 -49 -4 -108 -8 -130 -11 -37 -4 -232 -17 -300 -19 -16
-1 -35 -5 -42 -9 -6 -4 -14 -3 -18 3 -4 6 -10 8 -15 5 -5 -3 -49 -8 -97 -10
-48 -3 -124 -7 -168 -10 -231 -13 -484 -25 -620 -29 -60 -2 -204 -7 -320 -11
-416 -13 -580 -15 -1195 -15 -614 0 -729 2 -1160 16 -118 3 -254 7 -302 8 -49
0 -88 4 -88 7 0 4 -18 3 -40 -1 -22 -4 -42 -5 -45 -2 -3 3 -36 7 -73 8 -87 2
-295 13 -397 20 -97 6 -233 13 -340 19 -44 2 -109 6 -145 9 -75 6 -218 16
-305 21 -33 2 -60 5 -60 6 0 1 -20 2 -45 4 -25 1 -76 5 -115 9 -38 3 -104 8
-145 12 -41 3 -91 8 -110 10 -19 2 -64 6 -100 9 -82 5 -169 13 -223 20 -23 3
-69 7 -102 11 -33 3 -73 7 -90 9 -16 2 -64 6 -105 9 -42 4 -87 8 -100 11 -74
14 -480 27 -480 15z m380 -884 c65 -8 137 -16 200 -22 30 -2 78 -7 105 -10
105 -11 175 -18 300 -29 92 -7 148 -13 215 -20 30 -3 87 -8 125 -10 39 -3 95
-7 125 -10 30 -2 89 -7 131 -10 80 -5 151 -11 259 -20 36 -3 115 -8 175 -11
61 -3 137 -7 170 -10 131 -9 263 -16 545 -30 227 -11 539 -22 818 -29 118 -2
217 -6 220 -8 11 -6 1673 0 1867 7 357 12 484 16 600 22 66 3 163 7 215 9 52
2 95 4 95 5 0 0 45 3 100 5 95 4 181 9 340 19 39 3 115 8 170 11 55 3 127 8
160 10 33 3 94 7 135 10 41 3 100 7 130 10 30 2 91 7 135 10 44 3 103 8 130
10 58 6 141 13 223 20 31 3 80 7 107 10 28 3 82 7 120 10 39 3 88 8 110 11 45
6 87 10 190 20 95 8 119 11 200 20 89 10 365 10 430 1 102 -16 195 -45 280
-90 64 -33 190 -152 215 -202 8 -17 18 -32 21 -35 20 -18 92 -246 83 -262 -3
-4 -2 -8 3 -8 15 0 22 -333 9 -445 -13 -109 -15 -120 -26 -180 -5 -33 -13 -75
-16 -94 -3 -18 -8 -43 -10 -55 -2 -11 -11 -59 -19 -106 -8 -47 -17 -94 -19
-105 -2 -11 -7 -40 -10 -65 -3 -25 -8 -54 -10 -65 -7 -38 -19 -120 -21 -155
-2 -19 -4 -35 -5 -35 -1 0 -3 -11 -5 -25 -1 -14 -5 -52 -9 -85 -16 -132 -23
-204 -30 -285 -3 -36 -8 -94 -12 -130 -25 -295 -36 -913 -20 -1205 4 -77 9
-169 11 -205 3 -60 12 -173 20 -260 2 -19 6 -66 10 -105 3 -38 8 -81 10 -95 4
-27 15 -114 20 -170 2 -19 6 -51 9 -70 3 -19 7 -53 10 -75 6 -43 7 -45 37
-230 11 -66 22 -131 25 -145 2 -14 8 -47 13 -75 5 -27 12 -68 16 -90 3 -22 8
-51 11 -65 3 -14 7 -38 9 -55 2 -16 7 -50 10 -75 10 -67 12 -371 4 -400 -4
-14 -10 -43 -13 -65 -15 -112 -70 -258 -124 -328 -87 -112 -229 -208 -352
-237 -30 -7 -59 -15 -64 -18 -29 -17 -376 -23 -496 -9 -36 5 -81 10 -100 12
-62 6 -154 15 -215 20 -33 4 -78 8 -100 11 -22 3 -64 7 -92 9 -29 3 -79 7
-110 10 -32 3 -85 8 -118 10 -33 3 -84 8 -112 10 -141 13 -215 19 -373 30 -94
7 -177 13 -260 19 -64 5 -132 10 -335 22 -55 3 -125 7 -155 9 -30 2 -113 6
-185 10 -71 3 -166 8 -210 10 -114 7 -338 16 -490 20 -71 2 -130 4 -130 5 0 0
-115 4 -255 7 -534 14 -1800 7 -2310 -12 -448 -16 -735 -29 -880 -40 -30 -2
-109 -6 -175 -10 -66 -3 -145 -8 -175 -10 -30 -3 -91 -7 -135 -10 -44 -3 -109
-8 -145 -11 -36 -2 -94 -7 -130 -9 -157 -11 -209 -15 -265 -21 -33 -3 -80 -8
-105 -9 -62 -4 -187 -15 -235 -20 -22 -2 -69 -7 -105 -10 -36 -3 -81 -8 -100
-10 -19 -2 -66 -6 -105 -10 -38 -4 -83 -8 -100 -10 -16 -2 -62 -6 -102 -10
-39 -3 -86 -8 -105 -11 -57 -10 -371 -12 -418 -4 -66 12 -102 19 -130 27 -14
3 -27 7 -30 8 -74 18 -180 76 -249 135 -87 75 -183 257 -206 389 -13 76 -17
125 -19 208 0 51 -5 93 -9 93 -5 0 -6 4 -3 9 4 5 8 45 11 88 4 76 7 98 22 193
3 25 7 57 7 73 1 15 3 27 6 27 3 0 7 15 9 33 4 40 9 72 11 72 1 0 3 9 5 20 2
11 7 36 10 55 11 54 18 99 30 188 3 20 8 48 11 62 6 24 8 42 19 125 12 98 15
122 19 150 7 41 18 141 31 260 2 28 7 79 10 115 3 36 7 85 9 110 6 62 16 233
22 360 6 137 6 687 0 815 -9 192 -17 320 -21 355 -2 19 -7 64 -10 100 -14 168
-20 224 -29 293 -3 26 -9 68 -12 95 -3 26 -7 57 -9 68 -2 12 -7 48 -10 80 -4
33 -9 68 -11 79 -3 11 -7 36 -10 55 -15 98 -34 208 -39 230 -3 14 -7 39 -10
55 -4 33 -22 128 -28 160 -3 11 -8 45 -12 75 -4 30 -9 64 -11 75 -4 18 -17
256 -15 280 4 64 10 131 17 167 4 23 9 51 10 61 1 9 2 19 3 22 0 3 1 7 1 10 1
3 7 23 15 45 8 22 12 40 9 40 -2 0 5 18 16 40 11 22 17 40 13 40 -5 0 -3 4 3
8 6 4 24 31 40 61 15 29 34 56 41 58 7 3 13 10 13 15 0 6 10 19 23 30 12 11
37 33 54 49 18 16 37 29 42 29 4 0 14 7 21 15 7 8 16 12 21 9 5 -3 9 -2 9 3 0
13 145 66 210 77 14 3 25 5 25 6 0 1 19 3 43 5 24 2 46 6 49 8 6 7 322 1 383
-7z"/>
<path d="M6037 8284 c-2 -2 -116 -13 -187 -19 -19 -2 -35 -4 -35 -5 0 -2 -11
-4 -25 -5 -14 -1 -37 -5 -52 -9 -16 -3 -40 -8 -55 -11 -16 -4 -53 -13 -83 -21
-30 -8 -62 -17 -70 -19 -45 -12 -193 -66 -243 -89 -32 -14 -59 -26 -61 -26
-22 0 -350 -200 -376 -229 -3 -3 -25 -22 -50 -41 -93 -72 -310 -286 -310 -306
0 -3 -6 -11 -12 -18 -33 -32 -128 -163 -128 -175 0 -6 -4 -11 -10 -11 -5 0
-10 -4 -10 -9 0 -9 -63 -118 -80 -138 -5 -7 -10 -16 -10 -20 0 -5 -9 -25 -20
-46 -71 -132 -159 -403 -186 -571 -3 -21 -7 -48 -9 -59 -18 -88 -24 -360 -12
-502 7 -76 12 -112 28 -195 6 -30 12 -64 14 -75 2 -11 4 -20 6 -20 1 0 3 -9 4
-20 4 -25 52 -182 60 -195 3 -6 8 -19 10 -29 11 -56 176 -387 205 -411 3 -3
17 -23 30 -45 14 -22 30 -47 37 -55 172 -216 249 -295 408 -421 125 -98 115
-91 148 -108 15 -8 27 -18 27 -23 0 -4 4 -8 9 -8 5 0 42 -19 83 -43 86 -50
189 -100 293 -141 39 -15 174 -58 205 -65 3 0 28 -7 55 -15 28 -8 79 -19 115
-25 36 -6 79 -13 95 -16 95 -18 362 -24 485 -12 103 10 164 18 180 24 8 3 29
7 45 8 33 4 39 5 135 30 253 65 559 213 742 359 14 11 35 28 46 36 122 93 283
259 381 394 25 33 49 65 53 71 42 51 153 251 196 352 31 72 45 107 47 113 0 3
10 34 22 70 20 60 43 141 48 165 79 374 79 639 1 993 -9 40 -21 82 -26 93 -6
10 -9 19 -6 19 4 0 -28 97 -62 185 -27 71 -85 189 -94 193 -4 2 -8 9 -8 16 0
7 -11 29 -24 49 -13 19 -22 38 -18 41 3 3 0 6 -6 6 -7 0 -12 7 -12 15 0 8 -3
15 -8 15 -4 0 -13 13 -20 28 -6 16 -21 38 -32 50 -11 12 -20 24 -20 26 0 3 -6
14 -14 23 -165 206 -272 316 -416 426 -30 23 -56 45 -58 50 -2 4 -9 7 -16 7
-7 0 -21 9 -31 20 -10 11 -24 20 -32 20 -7 0 -13 5 -13 10 0 6 -4 10 -10 10
-5 0 -24 10 -43 23 -18 12 -60 36 -93 52 -32 17 -61 33 -64 36 -3 3 -54 26
-115 51 -132 55 -281 103 -375 122 -14 3 -36 7 -50 10 -13 3 -40 8 -60 11 -20
3 -47 7 -60 10 -57 11 -393 27 -403 19z m149 -727 c4 -3 14 -2 24 3 10 5 19 7
21 5 3 -2 27 -6 54 -10 83 -9 120 -16 220 -38 11 -3 47 -15 80 -26 33 -12 67
-23 75 -25 24 -6 134 -60 141 -69 3 -5 8 -7 11 -5 7 5 126 -71 166 -106 35
-31 67 -90 57 -106 -3 -5 -1 -11 4 -14 12 -8 -2 -65 -24 -103 -28 -48 -111
-93 -179 -97 -25 -2 -81 19 -116 44 -67 47 -226 120 -290 134 -14 3 -55 12
-91 20 -36 8 -74 15 -85 15 -10 0 -50 2 -88 4 -62 3 -115 -1 -225 -18 -18 -3
-36 -7 -40 -10 -4 -2 -21 -6 -37 -9 -53 -10 -294 -121 -294 -137 0 -6 -51 -30
-72 -33 -3 -1 -9 -4 -12 -7 -13 -13 -93 4 -137 28 -82 44 -116 117 -97 203 5
20 29 62 42 75 26 24 85 65 94 65 6 0 12 4 14 9 4 11 209 115 248 126 3 0 43
13 90 27 47 15 101 29 120 33 19 3 46 8 60 10 14 3 58 7 98 9 41 2 75 6 78 8
6 7 83 2 90 -5z m54 -1112 c0 8 60 -25 99 -54 37 -28 79 -88 98 -140 19 -54
11 -178 -14 -227 -60 -114 -160 -176 -283 -175 -122 2 -232 75 -279 186 -24
57 -33 131 -18 159 6 13 6 16 -2 12 -24 -15 42 122 74 155 42 42 94 76 135 87
51 14 137 17 163 5 15 -8 27 -11 27 -8z m-1248 -79 c91 -43 114 -93 122 -261
3 -55 8 -116 12 -135 7 -38 12 -64 13 -67 1 -2 1 -5 1 -8 0 -3 6 -21 14 -40 8
-19 13 -35 11 -35 -11 0 72 -163 120 -236 58 -86 170 -204 239 -251 22 -15 43
-31 46 -34 3 -4 25 -18 50 -31 89 -49 108 -62 130 -95 13 -19 24 -50 25 -69 1
-19 5 -37 8 -40 3 -3 1 -19 -3 -35 -5 -16 -9 -33 -10 -37 -5 -29 -36 -71 -65
-91 -26 -17 -52 -25 -95 -27 -34 -2 -60 1 -60 6 0 6 -7 10 -16 10 -9 0 -39 14
-66 30 -26 17 -51 30 -53 30 -4 0 -111 72 -154 105 -8 5 -62 58 -121 116 -144
143 -220 259 -320 484 -12 27 -61 203 -66 235 -1 8 -7 42 -12 75 -24 141 -7
355 28 355 6 0 10 6 10 14 0 7 8 17 18 20 9 3 28 13 42 22 31 19 101 14 152
-10z m2470 2 c21 -10 50 -37 65 -60 27 -39 28 -48 28 -157 0 -198 -34 -371
-102 -528 -9 -21 -17 -40 -18 -43 -4 -13 -59 -119 -78 -150 -89 -147 -264
-334 -391 -419 -160 -106 -237 -143 -291 -139 -103 7 -167 79 -166 189 0 56
17 107 47 136 7 7 48 34 91 59 152 90 279 207 359 331 109 169 166 347 168
520 1 40 3 73 6 73 3 0 4 17 4 38 -2 53 37 107 106 143 63 34 114 36 172 7z"/>
</g>
</svg>
